<?xml version="1.0" encoding="UTF-8"?>
<!DOCTYPE svg  PUBLIC '-//W3C//DTD SVG 20010904//EN'  'http://www.w3.org/TR/2001/REC-SVG-20010904/DTD/svg10.dtd'>
<svg width="1.5633in" height=".39667in" viewBox="0 0 469 119" xmlns="http://www.w3.org/2000/svg">
<path d="m100 0h16v22h20v13h-20v55c0.19 13.65 8.34 13.86 19 13 0.41 3.03 2.62 11.13 0.96 13.42-1.58 2.18-7.45 2.59-9.96 2.48-9.57-0.44-19.37-4.9-23.59-13.9-3.2-6.82-2.41-17.44-2.41-25v-45h-14v-13h14v-22zm-85 91c6.12 20.74 35.8 17.21 41.15 4 2.92-7.24-3.02-12.58-9.15-15.07-13.58-5.52-33.47-4.03-41.59-18.93-2.04-3.76-2.36-6.83-2.41-11-0.23-22.11 17.78-29.22 37-29 4.97 0.06 10.44 0.85 15 2.9 6.11 2.75 10.6 7.17 13.67 13.1 0.93 1.78 2.33 4.52 1.2 6.49-1.28 2.26-9.26 3.92-11.87 4.51-5.51-8.15-11.28-14.42-22-13.47-14.63 1.28-23.48 13.46-12.9 21.83 11.6 9.18 41.62 5.01 48.79 25.64 1.15 3.29 1.18 6.56 1.1 10-0.37 14.92-13.05 24.69-26.99 26.85h-15c-7.24 0.06-13.95-1.89-20-5.95-3.67-2.47-13.36-13.34-9.97-18.18 1.8-2.56 10.9-3.58 13.97-3.72zm172-69.56c13.72-1.76 26.74 0.77 36.96 10.65 20.13 19.45 18.82 64.14-4.96 80.31-9.55 6.49-17.02 6.73-28 6.6-23.65-0.28-36.57-19.41-39.15-41-0.42-3.47-0.97-5.34-0.76-9 1.34-23.64 10.76-42.85 35.91-47.56zm88 13.56c4.91-14.39 19.59-14 32-14v16c-18.81-4.57-32.91 5.19-33 25v55h-15v-95h15l1 13zm123 60c-3.84 13.45-15.46 21.75-29 23.85h-13c-6.86 0.07-13.01-1.28-19-4.73-14.16-8.15-19.31-20.73-21.15-36.12-0.42-3.47-0.97-5.33-0.76-9 0.73-12.85 3.99-26.31 13.09-35.91 16.19-17.06 46.49-16.19 61.49 1.91 10.19 12.29 9.33 25.23 9.33 40h-68c0.22 4.81 1.19 9.59 3.18 14 4.99 11.04 14.04 16 25.82 16 3.74 0 6.45-0.03 10-1.48 7.99-3.26 10.6-9.96 13.37-11.41 3.06-1.6 11.54 1.58 14.63 2.89zm39-60c4.91-14.39 19.59-14 32-14v16c-18.81-4.57-32.91 5.19-33 25v55h-15v-95h15l1 13zm-247 0.3c-21.59 4.22-26.34 29.33-21.62 47.7 3.27 12.74 10.75 21.83 24.62 22 6.14 0.07 10.72 0.06 16-3.65 17.19-12.06 18.07-49.22 0.99-61.71-6.28-4.59-12.54-5.08-19.99-4.34zm194 26.7c-1.15-8.64-2.13-15.25-9.17-21.32-4.74-4.08-9.68-5.54-15.83-5.66-16.13-0.32-26.69 11.44-28 26.98h53z" fill="#1e1e1e"/>
</svg>
